<svg
   xmlns:dc="http://purl.org/dc/elements/1.1/"
   xmlns:cc="http://creativecommons.org/ns#"
   xmlns:rdf="http://www.w3.org/1999/02/22-rdf-syntax-ns#"
   xmlns:svg="http://www.w3.org/2000/svg"
   xmlns="http://www.w3.org/2000/svg"
   xmlns:xlink="http://www.w3.org/1999/xlink"
   xmlns:sodipodi="http://sodipodi.sourceforge.net/DTD/sodipodi-0.dtd"
   xmlns:inkscape="http://www.inkscape.org/namespaces/inkscape"
   width="323"
   height="50"
   viewBox="0 0 85.460415 13.229167"
   version="1.1"
   id="svg8"
   sodipodi:docname="logo.svg"
   inkscape:version="0.92.1 r15371">
  <defs
     id="defs2">
    <clipPath
       clipPathUnits="userSpaceOnUse"
       id="clipPath3938">
      <use
         x="0"
         y="0"
         xlink:href="#g3934"
         id="use3940"
         width="100%"
         height="100%" />
    </clipPath>
  </defs>
  <sodipodi:namedview
     id="base"
     pagecolor="#ffffff"
     bordercolor="#666666"
     borderopacity="1.0"
     inkscape:pageopacity="0.0"
     inkscape:pageshadow="2"
     inkscape:zoom="3.959798"
     inkscape:cx="176.63337"
     inkscape:cy="-2.103335"
     inkscape:document-units="mm"
     inkscape:current-layer="g3934"
     showgrid="false"
     inkscape:window-width="1920"
     inkscape:window-height="1027"
     inkscape:window-x="-8"
     inkscape:window-y="-8"
     inkscape:window-maximized="1"
     units="px" />
  <metadata
     id="metadata5">
    <rdf:RDF>
      <cc:Work
         rdf:about="">
        <dc:format>image/svg+xml</dc:format>
        <dc:type
           rdf:resource="http://purl.org/dc/dcmitype/StillImage" />
        <dc:title></dc:title>
      </cc:Work>
    </rdf:RDF>
  </metadata>
  <g
     inkscape:label="Layer 1"
     inkscape:groupmode="layer"
     id="layer1"
     transform="translate(0,-283.77082)">
    <path class="Outline"
       d="m 68.042246,296.25418 h 11.76527 c 3.00448,0 5.46268,-2.46857 5.46268,-5.48573 v -1.37141 c 0,-3.01715 -2.4582,-5.48572 -5.46268,-5.48572 H 0.19022217 v 12.34286 H 6.6884881"
       style="fill:transparent;fill-rule:evenodd;stroke:#df0f20;stroke-width:0.38044435;stroke-linecap:butt;stroke-linejoin:miter;"
       id="path3786"
       inkscape:connector-curvature="0" 
	   stroke-miterlimit="10" />
    <path
       d="m 52.21234,286.11078 h 4.319905 c 0.728618,0 1.324772,0.59866 1.324772,1.33038 v 5.16822 c 0,0.73171 -0.596154,1.33038 -1.324772,1.33038 H 52.21234 Z m 1.677049,1.68152 h 1.913576 c 0.161908,0 0.294378,0.13303 0.294378,0.29564 v 3.82865 c 0,0.16261 -0.13247,0.29564 -0.294378,0.29564 h -1.913576 z"
       style="fill:#df0f20;fill-rule:evenodd;stroke-width:0.26458332"
       id="path3682"
       inkscape:connector-curvature="0" />
    <path
       d="m 72.815366,288.59018 1e-5,0.47545 h -5e-5 v 0.41976 h 3.11412 c 0.15716,0 0.28575,0.12914 0.28575,0.28694 v 0.0619 0.16741 h -1.82949 -0.24556 c -0.72862,0 -1.32477,0.59867 -1.32477,1.33037 v 1.27736 c 0,0.73169 0.59615,1.33037 1.32477,1.33037 h 2.25586 c 0.72863,0 1.32478,-0.59868 1.32478,-1.33037 v -0.63563 -1.9721 -0.63562 c 0,-0.73171 -0.59615,-1.33037 -1.32478,-1.33037 h -1.76807 v -1.8e-4 h -1.81261 v 0.55475 z m 1.79291,2.78982 h 1.28841 c 0.1619,0 0.2944,0.13304 0.2944,0.29564 v 0.50383 c 0,0.16259 -0.1325,0.29563 -0.2944,0.29563 h -1.28841 c -0.16192,0 -0.29439,-0.13304 -0.29439,-0.29563 v -0.50383 c 0,-0.1626 0.13247,-0.29564 0.29439,-0.29564 z"
       style="fill:#df0f20;fill-rule:evenodd;stroke-width:0.26458332"
       id="path3686"
       inkscape:connector-curvature="0" />
    <path
       d="m 78.702956,285.84407 v 8.09569 h 1.49552 v -8.09569 z"
       style="fill:#df0f20;fill-rule:evenodd;stroke-width:0.26458332"
       id="path3690"
       inkscape:connector-curvature="0" />
    <path
       d="m 81.205306,285.84407 v 8.09569 h 1.49552 v -8.09569 z"
       style="fill:#df0f20;fill-rule:evenodd;stroke-width:0.26458332"
       id="path3694"
       inkscape:connector-curvature="0" />
    <path
       d="m 69.792376,285.84388 h 1.49551 v 2.18804 h 0.98747 v 1.52084 h -0.98747 v 4.38681 h -1.49551 z"
       style="fill:#df0f20;fill-rule:evenodd;stroke-width:0.26458332"
       id="path3698"
       inkscape:connector-curvature="0" />
    <path
       d="m 59.604046,285.55753 a 0.95678522,0.96082273 0 0 1 0.956771,0.96082 0.95678522,0.96082273 0 1 1 -0.956771,-0.96082 z"
       style="fill:#df0f20;fill-rule:evenodd;stroke-width:0.26458332"
       id="path3702"
       inkscape:connector-curvature="0" />
    <path
       d="m 68.042286,285.58112 a 0.95678522,0.96082273 0 0 1 0.95677,0.96084 0.95678522,0.96082273 0 1 1 -0.95677,-0.96084 z"
       style="fill:#df0f20;fill-rule:evenodd;stroke-width:0.26458332"
       id="path3706"
       inkscape:connector-curvature="0" />
    <path
       d="m 16.958632,295.07834 a 0.95678522,0.96082273 0 0 1 0.956785,0.96082 0.95678522,0.96082273 0 1 1 -0.956785,-0.96082 z"
       style="fill:#df0f20;fill-rule:evenodd;stroke-width:0.26458332"
       id="path3710"
       inkscape:connector-curvature="0" />
    <path
       d="m 13.367021,295.07834 a 0.95678522,0.96082273 0 0 1 0.956785,0.96082 0.95678522,0.96082273 0 1 1 -0.956785,-0.96082 z"
       style="fill:#585758;fill-rule:evenodd;stroke-width:0.26458332"
       id="path3714"
       inkscape:connector-curvature="0" />
    <path
       d="m 9.7754106,295.07834 a 0.95678522,0.96082273 0 0 1 0.9567844,0.96082 0.95678522,0.96082273 0 1 1 -0.9567844,-0.96082 z"
       style="fill:#585758;fill-rule:evenodd;stroke-width:0.26458332"
       id="path3718"
       inkscape:connector-curvature="0" />
    <path
       d="m 20.196974,295.07834 a 0.95678522,0.96082273 0 0 1 0.956768,0.96082 0.95678522,0.96082273 0 1 1 -0.956768,-0.96082 z"
       style="fill:#585758;fill-rule:evenodd;stroke-width:0.26458332"
       id="path3722"
       inkscape:connector-curvature="0" />
    <path
       d="m 23.435299,295.07834 a 0.95678522,0.96082273 0 0 1 0.956785,0.96082 0.95678522,0.96082273 0 1 1 -0.956785,-0.96082 z"
       style="fill:#585758;fill-rule:evenodd;stroke-width:0.26458332"
       id="path3726"
       inkscape:connector-curvature="0" />
    <path
       d="m 67.301376,288.03533 v 5.90443 h 1.49552 v -5.90443 z"
       style="fill:#df0f20;fill-rule:evenodd;stroke-width:0.26458332"
       id="path3730"
       inkscape:connector-curvature="0" />
    <path
       d="m 58.86315,288.03526 v 5.90443 h 1.495538 v -5.90443 z"
       style="fill:#df0f20;fill-rule:evenodd;stroke-width:0.26458332"
       id="path3734"
       inkscape:connector-curvature="0" />
    <path
       d="m 47.219298,285.84407 v 8.09569 h 1.495525 v -8.09569 z"
       style="fill:#df0f20;fill-rule:evenodd;stroke-width:0.26458332"
       id="path3738"
       inkscape:connector-curvature="0" />
    <path
       d="m 49.72165,285.84407 v 8.09569 h 1.495525 v -8.09569 z"
       style="fill:#df0f20;fill-rule:evenodd;stroke-width:0.26458332"
       id="path3742"
       inkscape:connector-curvature="0" />
    <path
       d="m 41.32254,288.59018 3.5e-5,0.47545 h -5.2e-5 v 0.41976 h 3.114117 c 0.157158,0 0.285737,0.12914 0.285737,0.28694 v 0.0619 0.16741 H 42.892879 42.64733 c -0.728623,0 -1.324772,0.59867 -1.324772,1.33037 v 1.27736 c 0,0.73169 0.596149,1.33037 1.324772,1.33037 h 2.255864 c 0.728624,0 1.324772,-0.59868 1.324772,-1.33037 v -0.63563 -1.9721 -0.63562 c 0,-0.73171 -0.596148,-1.33037 -1.324772,-1.33037 h -1.768061 v -1.8e-4 h -1.81261 v 0.55475 z m 1.792918,2.78982 h 1.288404 c 0.161927,0 0.294398,0.13304 0.294398,0.29564 v 0.50383 c 0,0.16259 -0.132471,0.29563 -0.294398,0.29563 h -1.288404 c -0.161907,0 -0.294381,-0.13304 -0.294381,-0.29563 v -0.50383 c 0,-0.1626 0.132474,-0.29564 0.294381,-0.29564 z"
       style="fill:#df0f20;fill-rule:evenodd;stroke-width:0.26458332"
       id="path3746"
       inkscape:connector-curvature="0" />
    <path
       d="m 61.370534,295.5491 3.3e-5,-0.47545 h -5.3e-5 v -0.46049 h 2.916799 c 0.569639,0 0.497825,-0.45359 0.497825,-0.6734 -0.733932,0 -1.467647,0 -2.201573,0 -0.64767,0 -1.177586,-0.53215 -1.177586,-1.18257 v -3.47539 c 0,-0.65041 0.529916,-1.18256 1.177586,-1.18256 h 2.567615 c 0.647666,0 1.177576,0.53215 1.177576,1.18256 v 4.65796 l -0.0528,0.83348 c -0.0463,0.73023 -0.596151,1.33038 -1.324776,1.33038 h -1.76806 v 1.8e-4 h -1.812612 v -0.55475 z m 1.816288,-5.99526 h 1.324766 c 0.161927,0 0.294404,0.13303 0.294404,0.29564 v 2.26435 c 0,0.1626 -0.132477,0.29564 -0.294404,0.29564 h -1.324766 c -0.161915,0 -0.294405,-0.13304 -0.294405,-0.29564 v -2.26435 c 0,-0.16261 0.13249,-0.29564 0.294405,-0.29564 z"
       style="fill:#df0f20;fill-rule:evenodd;stroke-width:0.26458332"
       id="path3750"
       inkscape:connector-curvature="0" />
    <path
       d="m 35.167801,283.81568 h 6.626787 c 0.61787,0 1.123409,0.50767 1.123409,1.12815 v 0.46287 1.21755 h -1.694179 v -0.20848 -0.4567 -0.16804 c 0,-0.21137 -0.172223,-0.38433 -0.382704,-0.38433 h -0.227019 -1.308354 -4.13794 z"
       style="fill:#585758;fill-rule:evenodd;stroke-width:0.26458332"
       id="path3754"
       inkscape:connector-curvature="0" />
    <path
       d="m 37.879542,286.06928 v 7.87048 h 1.583843 v -7.87048 z"
       style="fill:#585758;fill-rule:evenodd;stroke-width:0.26458332"
       id="path3758"
       inkscape:connector-curvature="0" />
    <path
       d="m 10.467594,285.83295 a 0.95678522,0.96082273 0 0 1 0.956785,0.96082 0.95678522,0.96082273 0 1 1 -0.956785,-0.96082 z"
       style="fill:#585758;fill-rule:evenodd;stroke-width:0.26458332"
       id="path3762"
       inkscape:connector-curvature="0" />
    <path
       d="m 12.381165,285.83295 a 0.95678522,0.96082273 0 0 1 0.956785,0.96082 0.95678522,0.96082273 0 1 1 -0.956785,-0.96082 z"
       style="fill:#585758;fill-rule:evenodd;stroke-width:0.26458332"
       id="path3766"
       inkscape:connector-curvature="0" />
    <path
       d="m 36.878431,286.06928 h -1.591799 v 5.81888 c 0,0.18026 -0.146862,0.32773 -0.326348,0.32773 h -1.820222 c -0.179485,0 -0.326347,-0.14747 -0.326347,-0.32773 v -4.15098 h -1.595873 v 4.72372 c 0,0.813 0.662385,1.4782 1.47198,1.4782 h 2.716647 c 0.809577,0 1.471962,-0.6652 1.471962,-1.4782 z"
       style="fill:#585758;fill-rule:evenodd;stroke-width:0.26458332"
       id="path3770"
       inkscape:connector-curvature="0" />
    <path
       d="m 6.4579681,286.06928 h -1.591816 v 5.81888 c 0,0.18026 -0.146845,0.32773 -0.32633,0.32773 h -1.82024 c -0.179486,0 -0.326348,-0.14747 -0.326348,-0.32773 v -4.15098 H 0.79736213 v 4.72372 c 0,0.813 0.66240297,1.4782 1.47197997,1.4782 h 2.716646 c 0.809595,0 1.47198,-0.6652 1.47198,-1.4782 z"
       style="fill:#585758;fill-rule:evenodd;stroke-width:0.26458332"
       id="path3774"
       inkscape:connector-curvature="0" />
    <path
       d="m 26.374197,288.05281 h 2.519184 c 0.809577,0 1.471963,0.6652 1.471963,1.47819 v 2.93057 c 0,0.81301 -0.662386,1.47819 -1.471963,1.47819 h -2.519184 v -1.53635 h 2.160819 c 0.161908,0 0.294399,-0.13303 0.294399,-0.29562 v -2.18787 c 0,-0.16261 -0.132491,-0.29565 -0.294399,-0.29565 h -2.160819 z"
       style="fill:#585758;fill-rule:evenodd;stroke-width:0.26458332"
       id="path3778"
       inkscape:connector-curvature="0" />
    <path
       d="m 22.18297,293.971 h -0.562727 v 0 c -0.161926,0 -0.2944,-0.13303 -0.2944,-0.29564 v -0.0293 c -1.21e-4,0.17875 -0.145787,0.32496 -0.323834,0.32496 h -0.498987 -4.478918 c -0.323834,0 -0.588798,-0.26607 -0.588798,-0.59126 0,0.32519 -0.264948,0.59126 -0.588782,0.59126 h -2.870355 c -0.161909,0 -0.294383,-0.13303 -0.294383,-0.29564 v -0.0293 c -1.39e-4,0.17874 -0.145804,0.32495 -0.323834,0.32495 H 8.8349021 c -0.715777,0 -1.301421,-0.58811 -1.301421,-1.30691 v -4.10953 -0.50175 -1.98353 h 1.572349 v 1.98353 4.05377 c 0,0.16259 0.132474,0.29564 0.2943995,0.29564 H 10.62881 c 0.161908,0 0.294382,-0.13305 0.294382,-0.29564 v -4.05377 h 0.758594 v 0 h 0.772983 v 4.05377 c 0,0.16259 0.132474,0.29564 0.2944,0.29564 h 1.228579 c 0.161909,0 0.294382,-0.13305 0.294382,-0.29564 v -4.05377 h 0.700194 0.462982 0.330733 v 4.34941 h 4.528669 c 0.149722,-0.0135 0.26812,-0.14074 0.26812,-0.29444 v -2.18787 c 0,-0.16261 -0.132491,-0.29564 -0.2944,-0.29564 h -3.041139 v -1.57146 h 3.399505 c 0.809577,0 1.471963,0.66519 1.471963,1.47819 v 0.14476 h 3.46e-4 v 2.43082 c 0,0.16259 0.132474,0.29564 0.2944,0.29564 h 1.27476 c 0.161926,0 0.294399,-0.13305 0.294399,-0.29564 v -4.05377 h 1.482035 v 4.61128 c 0,0.7188 -0.585644,1.30691 -1.301421,1.30691 z"
       style="fill:#585758;fill-rule:evenodd;stroke-width:0.26458332"
       id="path3782"
       inkscape:connector-curvature="0" />
    <g
       id="g3934"
       inkscape:label="Clip">
      <g
         id="text3794"
         style="font-size:3.17499995px;stroke-width:0.40298411"
         aria-label="O n l i n e S t o r e"
         transform="matrix(0.65517923,0,0,0.657944,-22.409154,201.93927)">
        <path class="Text O1"
           inkscape:connector-curvature="0"
           id="path3942"
           style="font-size:4.8947916px;font-family:'Century Gothic';fill:#585758;stroke-width:0.40298411"
           d="m 76.956701,140.6109 q 0.798271,0 1.336029,0.53298 0.537758,0.53298 0.537758,1.31213 0,0.77198 -0.537758,1.30974 -0.535368,0.53775 -1.307349,0.53775 -0.781541,0 -1.319299,-0.53536 -0.537758,-0.53537 -0.537758,-1.2954 0,-0.50669 0.243783,-0.93929 0.246174,-0.43259 0.66921,-0.67638 0.423036,-0.24617 0.915384,-0.24617 z m 0.01673,0.34416 q -0.389576,0 -0.738521,0.20316 -0.348945,0.20315 -0.544928,0.54732 -0.195983,0.34416 -0.195983,0.7672 0,0.62619 0.432597,1.05878 0.434986,0.43021 1.046835,0.43021 0.408696,0 0.755251,-0.19837 0.348945,-0.19838 0.542538,-0.54254 0.195983,-0.34417 0.195983,-0.76481 0,-0.41826 -0.195983,-0.75525 -0.193593,-0.33939 -0.547318,-0.54254 -0.353725,-0.20316 -0.750471,-0.20316 z" />
        <path class="Text N1"
           inkscape:connector-curvature="0"
           id="path3944"
           style="font-size:4.8947916px;font-family:'Century Gothic';fill:#585758;stroke-width:0.40298411"
           d="m 82.491763,141.61471 h 0.334605 v 0.46606 q 0.200763,-0.26768 0.444547,-0.39913 0.243783,-0.13385 0.530588,-0.13385 0.291584,0 0.516247,0.14819 0.227053,0.14818 0.334605,0.39913 0.107552,0.25096 0.107552,0.78154 v 1.33842 h -0.332215 v -1.24043 q 0,-0.44932 -0.03824,-0.59989 -0.05975,-0.25813 -0.224663,-0.38719 -0.164913,-0.13145 -0.430206,-0.13145 -0.303535,0 -0.544928,0.20076 -0.239004,0.20076 -0.315485,0.49713 -0.0478,0.19359 -0.0478,0.70745 v 0.95362 h -0.334605 z" />
        <path class="Text L"
           inkscape:connector-curvature="0"
           id="path3946"
           style="font-size:4.8947916px;font-family:'Century Gothic';fill:#585758;stroke-width:0.40298411"
           d="m 88.62451,140.6109 h 0.334605 v 3.60417 H 88.62451 Z" />
        <path class="Text I"
           inkscape:connector-curvature="0"
           id="path3948"
           style="font-size:4.8947916px;font-family:'Century Gothic';fill:#585758;stroke-width:0.40298411"
           d="m 92.409717,140.54398 q 0.114722,0 0.195983,0.0813 0.08126,0.0813 0.08126,0.19598 0,0.11233 -0.08126,0.1936 -0.08126,0.0813 -0.195983,0.0813 -0.112331,0 -0.193593,-0.0813 -0.08126,-0.0813 -0.08126,-0.1936 0,-0.11472 0.08126,-0.19598 0.08126,-0.0813 0.193593,-0.0813 z m -0.167302,1.07073 h 0.336995 v 2.60036 h -0.336995 z" />
        <path class="Text N2"
           inkscape:connector-curvature="0"
           id="path3950"
           style="font-size:4.8947916px;font-family:'Century Gothic';fill:#585758;stroke-width:0.40298411"
           d="m 95.683834,141.61471 h 0.334605 v 0.46606 q 0.200763,-0.26768 0.444546,-0.39913 0.243784,-0.13385 0.530588,-0.13385 0.291584,0 0.516247,0.14819 0.227054,0.14818 0.334605,0.39913 0.107552,0.25096 0.107552,0.78154 v 1.33842 h -0.332215 v -1.24043 q 0,-0.44932 -0.03824,-0.59989 -0.05975,-0.25813 -0.224663,-0.38719 -0.164912,-0.13145 -0.430206,-0.13145 -0.303535,0 -0.544928,0.20076 -0.239004,0.20076 -0.315485,0.49713 -0.0478,0.19359 -0.0478,0.70745 v 0.95362 h -0.334606 z" />
        <path class="Text E1"
           inkscape:connector-curvature="0"
           id="path3952"
           style="font-size:4.8947916px;font-family:'Century Gothic';fill:#585758;stroke-width:0.40298411"
           d="m 102.35515,143.35227 0.28203,0.14818 q -0.13863,0.27247 -0.32027,0.43977 -0.18164,0.1673 -0.40869,0.25573 -0.22706,0.086 -0.51386,0.086 -0.63575,0 -0.99426,-0.41586 -0.3585,-0.41826 -0.3585,-0.94407 0,-0.49473 0.30353,-0.88192 0.3848,-0.49235 1.03011,-0.49235 0.66443,0 1.06117,0.5043 0.28203,0.35612 0.28681,0.88909 h -2.33746 q 0.01,0.45411 0.2892,0.74569 0.27963,0.2892 0.69072,0.2892 0.19837,0 0.38479,-0.0693 0.18882,-0.0693 0.32027,-0.18403 0.13145,-0.11473 0.28441,-0.37046 z m 0,-0.70028 q -0.0669,-0.26768 -0.19598,-0.42782 -0.12667,-0.16013 -0.337,-0.25812 -0.21032,-0.098 -0.44215,-0.098 -0.38241,0 -0.65726,0.24617 -0.20077,0.17925 -0.30354,0.53776 z" />
        <path class="Text S"
           inkscape:connector-curvature="0"
           id="path3954"
           style="font-size:4.8947916px;font-family:'Century Gothic';fill:#585758;stroke-width:0.40298411"
           d="m 105.6743,143.5602 0.29876,-0.17925 q 0.31548,0.58078 0.72896,0.58078 0.17686,0 0.33221,-0.0813 0.15535,-0.0837 0.23662,-0.22228 0.0813,-0.13862 0.0813,-0.29397 0,-0.17686 -0.1195,-0.34655 -0.16492,-0.23423 -0.60229,-0.56405 -0.43977,-0.33222 -0.54732,-0.4804 -0.18642,-0.24856 -0.18642,-0.53776 0,-0.22944 0.10994,-0.41825 0.10994,-0.18882 0.30831,-0.29637 0.20076,-0.10994 0.43499,-0.10994 0.24856,0 0.46366,0.12428 0.2175,0.12189 0.45889,0.45172 l -0.2868,0.21749 q -0.19838,-0.2629 -0.33939,-0.34655 -0.13862,-0.0837 -0.30353,-0.0837 -0.21272,0 -0.34895,0.12906 -0.13384,0.12906 -0.13384,0.31787 0,0.11472 0.0478,0.22228 0.0478,0.10755 0.17447,0.23422 0.0693,0.0669 0.45411,0.35133 0.4565,0.337 0.62619,0.5999 0.16969,0.26291 0.16969,0.5282 0,0.38241 -0.29158,0.66443 -0.2892,0.28202 -0.70506,0.28202 -0.32027,0 -0.58078,-0.16969 -0.26052,-0.17208 -0.4804,-0.57361 z" />
        <path class="Text T"
           inkscape:connector-curvature="0"
           id="path3956"
           style="font-size:4.8947916px;font-family:'Century Gothic';fill:#585758;stroke-width:0.40298411"
           d="m 111.06176,140.64914 h 0.33699 v 0.96557 h 0.53059 v 0.28681 h -0.53059 v 2.31355 h -0.33699 v -2.31355 h -0.4565 v -0.28681 h 0.4565 z" />
        <path class="Text O2"
           inkscape:connector-curvature="0"
           id="path3958"
           style="font-size:4.8947916px;font-family:'Century Gothic';fill:#585758;stroke-width:0.40298411"
           d="m 115.36234,141.54779 q 0.5999,0 0.99425,0.43499 0.35851,0.39675 0.35851,0.93928 0,0.54493 -0.38002,0.95363 -0.37762,0.4063 -0.97274,0.4063 -0.59751,0 -0.97753,-0.4063 -0.37762,-0.4087 -0.37762,-0.95363 0,-0.54014 0.3585,-0.93689 0.39436,-0.43738 0.99665,-0.43738 z m 0,0.32744 q -0.41587,0 -0.71462,0.30831 -0.29876,0.30832 -0.29876,0.74569 0,0.28203 0.13624,0.52581 0.13623,0.24379 0.36806,0.37763 0.23183,0.13145 0.50908,0.13145 0.27724,0 0.50908,-0.13145 0.23183,-0.13384 0.36806,-0.37763 0.13623,-0.24378 0.13623,-0.52581 0,-0.43737 -0.30114,-0.74569 -0.29876,-0.30831 -0.71223,-0.30831 z" />
        <path class="Text R"
           inkscape:connector-curvature="0"
           id="path3960"
           style="font-size:4.8947916px;font-family:'Century Gothic';fill:#585758;stroke-width:0.40298411"
           d="m 119.27369,141.61471 h 0.34178 v 0.38002 q 0.15296,-0.22466 0.32265,-0.3346 0.1697,-0.11234 0.35373,-0.11234 0.13862,0 0.29636,0.0884 l -0.17447,0.28203 q -0.10516,-0.0454 -0.17686,-0.0454 -0.1673,0 -0.32266,0.13862 -0.15535,0.13623 -0.23661,0.42543 -0.0621,0.22227 -0.0621,0.89865 v 0.87953 h -0.34178 z" />
        <path class="Text E2"
           inkscape:connector-curvature="0"
           id="path3962"
           style="font-size:4.8947916px;font-family:'Century Gothic';fill:#585758;stroke-width:0.40298411"
           d="m 125.45887,143.35227 0.28202,0.14818 q -0.13862,0.27247 -0.32026,0.43977 -0.18164,0.1673 -0.4087,0.25573 -0.22705,0.086 -0.51386,0.086 -0.63574,0 -0.99425,-0.41586 -0.35851,-0.41826 -0.35851,-0.94407 0,-0.49473 0.30354,-0.88192 0.38479,-0.49235 1.0301,-0.49235 0.66443,0 1.06118,0.5043 0.28202,0.35612 0.2868,0.88909 h -2.33745 q 0.01,0.45411 0.28919,0.74569 0.27964,0.2892 0.69072,0.2892 0.19838,0 0.3848,-0.0693 0.18881,-0.0693 0.32026,-0.18403 0.13146,-0.11473 0.28442,-0.37046 z m 0,-0.70028 q -0.0669,-0.26768 -0.19598,-0.42782 -0.12668,-0.16013 -0.337,-0.25812 -0.21032,-0.098 -0.44216,-0.098 -0.3824,0 -0.65726,0.24617 -0.20076,0.17925 -0.30353,0.53776 z" />
      </g>
    </g>
  </g>
  <style>
  	.Outline {
  stroke-dasharray: 1000;
  stroke-dashoffset: 1000;
  animation: outline 5s linear alternate forwards;
}
@keyframes outline {
  from {
    stroke-dashoffset: 1000;
  }
  to {
    stroke-dashoffset: 0;
  }
}

.Text {
	opacity: 1;
}

.Text.O1 {
	  animation: o1 2s linear alternate forwards;
}

.Text.N1 {
	  animation: n1 2s linear alternate forwards;
}

.Text.L {
	  animation: l 2s linear alternate forwards;
}

.Text.I {
	  animation: i 2s linear alternate forwards;
}

.Text.N2 {
	  animation: n2 2s linear alternate forwards;
}

.Text.E1 {
	  animation: e1 2s linear alternate forwards;
}

.Text.S {
	  animation: s 2s linear alternate forwards;
}

.Text.T {
	  animation: t 2s linear alternate forwards;
}

.Text.O2 {
	  animation: o2 2s linear alternate forwards;
}

.Text.R {
	  animation: r 2s linear alternate forwards;
}

.Text.E2 {
	  animation: e2 2s linear alternate forwards;
}

@keyframes o1 {
	0% {
		opacity: 0;
	}
	
	30% {
		opacity: 0;
	}
	
	35% {
		opacity: 1;
	}
}

@keyframes n1 {
	0% {
		opacity: 0;
	}
	
	34% {
		opacity: 0;
	}
	
	39% {
		opacity: 1;
	}
}

@keyframes l {
	0% {
		opacity: 0;
	}
	
	38% {
		opacity: 0;
	}
	
	43% {
		opacity: 1;
	}
}

@keyframes i {
	0% {
		opacity: 0;
	}
	
	42% {
		opacity: 0;
	}
	
	47% {
		opacity: 1;
	}
}

@keyframes n2 {
	0% {
		opacity: 0;
	}
	
	46% {
		opacity: 0;
	}
	
	51% {
		opacity: 1;
	}
}

@keyframes e1 {
	0% {
		opacity: 0;
	}
	
	50% {
		opacity: 0;
	}
	
	55% {
		opacity: 1;
	}
}

@keyframes s {
	0% {
		opacity: 0;
	}
	
	54% {
		opacity: 0;
	}
	
	59% {
		opacity: 1;
	}
}

@keyframes t {
	0% {
		opacity: 0;
	}
	
	58% {
		opacity: 0;
	}
	
	63% {
		opacity: 1;
	}
}

@keyframes o2 {
	0% {
		opacity: 0;
	}
	
	62% {
		opacity: 0;
	}
	
	67% {
		opacity: 1;
	}
}

@keyframes r {
	0% {
		opacity: 0;
	}
	
	66% {
		opacity: 0;
	}
	
	71% {
		opacity: 1;
	}
}

@keyframes e2 {
	0% {
		opacity: 0;
	}
	
	70% {
		opacity: 0;
	}
	
	75% {
		opacity: 1;
	}
}


  </style>
</svg>