<?xml version="1.0" standalone="no"?>
<!DOCTYPE svg PUBLIC "-//W3C//DTD SVG 20010904//EN"
 "http://www.w3.org/TR/2001/REC-SVG-20010904/DTD/svg10.dtd">
<svg version="1.0" xmlns="http://www.w3.org/2000/svg"
 width="610.000000pt" height="497.000000pt" viewBox="0 0 610.000000 497.000000"
 preserveAspectRatio="xMidYMid meet">

<g transform="translate(0.000000,497.000000) scale(0.100000,-0.100000)"
fill="#000000" stroke="none">
<path d="M184 4812 c-62 -50 -59 -157 6 -192 19 -10 152 -40 450 -100 80 -16
200 -41 267 -54 72 -15 151 -25 195 -24 40 0 91 -4 114 -10 37 -11 41 -16 52
-59 12 -48 82 -342 122 -508 12 -49 41 -171 64 -270 134 -555 175 -729 266
-1110 55 -231 107 -446 115 -478 l15 -58 -190 -379 -190 -379 0 -364 0 -365
36 -32 c33 -29 42 -31 93 -29 91 5 101 -2 101 -69 1 -73 26 -128 79 -174 179
-153 444 30 366 253 -49 137 -216 191 -345 111 -43 -27 -54 -30 -70 -19 -18
11 -20 23 -20 134 l0 123 1308 -2 1307 -3 3 -147 3 -146 36 -32 c34 -30 40
-32 92 -28 85 8 101 -3 101 -71 1 -233 302 -316 424 -117 25 40 30 58 30 114
0 103 -50 180 -144 220 -58 24 -157 12 -213 -27 -40 -27 -49 -30 -67 -19 -19
12 -20 23 -20 223 l0 210 -1397 -3 c-769 -2 -1426 -1 -1460 3 l-63 7 0 111 1
112 172 340 172 340 819 3 820 2 23 22 c34 32 32 99 -3 127 -27 21 -32 21
-833 21 l-807 0 -14 52 c-7 29 -15 58 -17 64 -3 8 459 13 1624 17 l1628 7 18
21 c16 20 17 69 17 710 l0 688 -22 24 c-19 21 -41 27 -138 41 -128 19 -384 58
-690 106 -759 118 -996 155 -1095 170 -66 10 -165 25 -220 34 -55 9 -347 54
-650 101 -575 89 -747 116 -880 136 -44 7 -81 13 -83 14 -3 2 -23 81 -51 205
-27 118 -37 143 -60 157 -10 6 -65 21 -122 33 -57 13 -111 29 -120 36 -28 25
-23 24 -759 174 -117 24 -168 25 -196 2z m1483 -752 c199 -32 183 -26 183 -71
l0 -39 -150 0 -149 0 -10 38 c-20 79 -21 92 -11 92 5 0 67 -9 137 -20z m448
-71 c243 -37 243 -37 8 -38 l-223 -1 0 36 c0 36 0 36 38 30 20 -3 100 -15 177
-27z m-267 -261 l3 -158 -105 0 -104 0 -36 149 c-20 82 -36 154 -36 160 0 8
39 11 138 9 l137 -3 3 -157z m580 -1 l3 -157 -263 2 -263 3 -3 145 c-1 79 0
150 2 157 4 11 58 13 263 11 l258 -3 3 -158z m455 143 c65 -11 120 -20 123
-20 2 0 4 -63 4 -140 l0 -140 -260 0 -260 0 0 160 0 160 138 0 c90 0 177 -7
255 -20z m293 -44 c49 -8 150 -24 224 -36 74 -11 147 -23 163 -26 l27 -6 0
-94 0 -94 -260 0 -260 0 0 135 c0 74 4 135 8 135 5 0 49 -7 98 -14z m710 -111
c317 -49 284 -38 284 -96 l0 -49 -260 0 -260 0 0 90 c0 50 2 90 4 90 2 0 106
-16 232 -35z m574 -89 c85 -14 178 -28 205 -32 120 -16 73 -23 -172 -23 l-263
-1 0 46 0 46 38 -6 c20 -3 107 -17 192 -30z m-2612 -308 l-3 -193 -47 -3 c-47
-3 -47 -3 -57 35 -19 70 -81 333 -81 343 0 6 40 10 95 10 l95 0 -2 -192z m580
0 l-3 -193 -260 0 -260 0 -3 193 -2 192 265 0 265 0 -2 -192z m582 -3 l0 -195
-260 0 -260 0 0 195 0 195 260 0 260 0 0 -195z m580 0 l0 -195 -260 0 -260 0
0 195 0 195 260 0 260 0 0 -195z m580 0 l0 -195 -260 0 -260 0 0 195 0 195
260 0 260 0 0 -195z m588 3 l-3 -193 -260 0 -260 0 -3 193 -2 192 265 0 265 0
-2 -192z m390 0 l-3 -193 -165 0 -165 0 -3 193 -2 192 170 0 170 0 -2 -192z
m-3298 -420 c0 -94 -2 -169 -5 -167 -6 7 -75 298 -75 320 0 16 7 19 40 19 l40
0 0 -172z m578 -25 l2 -193 -265 0 -265 0 0 188 c0 104 3 192 7 195 4 4 122 6
262 5 l256 -3 3 -192z m582 2 l0 -195 -260 0 -260 0 0 195 0 195 260 0 260 0
0 -195z m580 0 l0 -195 -260 0 -260 0 0 195 0 195 260 0 260 0 0 -195z m580 0
l0 -195 -260 0 -260 0 0 195 0 195 260 0 260 0 0 -195z m588 -2 l2 -193 -265
0 -265 0 0 188 c0 104 3 192 7 195 4 4 122 6 262 5 l256 -3 3 -192z m392 2 l0
-195 -170 0 -170 0 0 188 c0 104 3 192 7 195 3 4 80 7 170 7 l163 0 0 -195z
m-2720 -430 l0 -175 -239 0 -239 0 -26 113 c-25 106 -34 216 -19 230 3 4 123
7 265 7 l258 0 0 -175z m580 0 l0 -175 -260 0 -260 0 0 175 0 175 260 0 260 0
0 -175z m580 0 l0 -175 -260 0 -260 0 0 175 0 175 260 0 260 0 0 -175z m580 0
l0 -175 -260 0 -260 0 0 175 0 175 260 0 260 0 0 -175z m585 0 l0 -170 -262
-3 -263 -2 0 175 0 175 263 -2 262 -3 0 -170z m395 0 l0 -175 -167 2 -168 3
-3 173 -2 172 170 0 170 0 0 -175z"/>
</g>
</svg>
